<?xml version="1.0" encoding="UTF-8" standalone="no"?>
<svg
   id="svg1"
   viewBox="0 0 400 399.99999"
   version="1.1"
   sodipodi:docname="hesafin-logo-sq.svg"
   inkscape:version="1.3.2 (091e20e, 2023-11-25, custom)"
   inkscape:export-filename="hesafin-logo-sq.png"
   inkscape:export-xdpi="96"
   inkscape:export-ydpi="96"
   width="400"
   height="400"
   xmlns:inkscape="http://www.inkscape.org/namespaces/inkscape"
   xmlns:sodipodi="http://sodipodi.sourceforge.net/DTD/sodipodi-0.dtd"
   xmlns="http://www.w3.org/2000/svg"
   xmlns:svg="http://www.w3.org/2000/svg">
  <sodipodi:namedview
     id="namedview17"
     pagecolor="#ffffff"
     bordercolor="#000000"
     borderopacity="0.25"
     inkscape:showpageshadow="2"
     inkscape:pageopacity="0.0"
     inkscape:pagecheckerboard="0"
     inkscape:deskcolor="#d1d1d1"
     inkscape:zoom="0.5984375"
     inkscape:cx="520.52219"
     inkscape:cy="191.33159"
     inkscape:window-width="1920"
     inkscape:window-height="1009"
     inkscape:window-x="-8"
     inkscape:window-y="-8"
     inkscape:window-maximized="1"
     inkscape:current-layer="svg1" />
  <defs
     id="defs1">
    <style
       id="style1">
      .cls-1 {
        fill: #fff;
      }

      .cls-2 {
        isolation: isolate;
      }

      .cls-3 {
        fill: #1cabe2;
      }
    </style>
  </defs>
  <path
     id="path8"
     class="cls-1"
     d="m 353.31425,323.94932 -123.77853,68.30489 c -18.0741,9.97367 -40.28614,9.90682 -58.30489,-0.16043 L 43.895601,320.90107 C 25.461679,310.59317 14.154986,291.62182 14.210344,271.11297 l 0.401339,-136.82369 c 0.0692,-23.06243 12.912049,-44.333343 33.698649,-55.804394 L 174.75985,8.6959793 c 16.57946,-9.14475299 36.96472,-9.09127499 53.48882,0.147065 L 354.50443,79.434122 c 20.57901,11.511159 33.22811,32.715228 33.15892,55.617218 l -0.3875,132.6524 c -0.0692,23.23623 -13.00893,44.66757 -33.9616,56.23221 v 0 z"
     style="stroke-width:1.36024" />
  <path
     id="path29"
     class="cls-3"
     d="m 347.11425,306.16786 -126.07584,70.06966 c -13.05045,7.25965 -29.10401,7.19281 -42.0991,-0.14706 L 54.053634,305.55286 C 40.823281,298.0793 32.699623,284.32206 32.75498,269.45515 l 0.498214,-137.87989 c 0.05536,-16.04342 8.926336,-30.84349 23.277671,-38.825093 L 179.40985,24.458646 c 13.54865,-7.527041 30.19731,-7.473563 43.69061,0.147065 L 346.61604,94.36788 c 13.59017,7.67411 21.93526,21.80569 21.8799,37.06032 l -0.49821,139.91205 c -0.0554,14.38561 -8.01294,27.64817 -20.86964,34.80087 v 0 z"
     style="fill:#55c9f4;fill-opacity:1;stroke-width:1.36024" />
  <path
     class="cls-1"
     d="m 304.47543,272.27612 -9.3,-27.52785 c 3.39063,-2.33967 5.71563,-6.80509 5.71563,-11.45768 0,-6.76498 -2.40804,-10.93627 -8.37277,-10.93627 -5.96473,0 -11.43124,5.89596 -11.43124,12.66094 0,6.76498 2.71249,10.97638 8.12365,11.37746 l -7.36249,35.48271 c -0.47054,2.27282 2.02053,4.02423 4.11026,2.91456 l 17.10535,-9.10464 c 1.25938,-0.66848 1.84063,-2.09902 1.39777,-3.40923 z"
     id="path15"
     style="stroke-width:1.36024" />
  <path
     class="cls-1"
     d="m 248.8,88.151051 -5.12053,-2.941295 c -1.13482,-0.655106 -2.31116,-1.296843 -3.4875,-1.871733 -23.40222,-11.591376 -50.72096,4.024226 -73.09908,41.753017 l -1.57768,2.33967 -0.20759,0.3075 c -0.87187,1.39043 -0.4567,3.22205 0.92723,4.11781 l 2.24197,1.47065 c 0.27678,0.18717 0.56741,0.34761 0.85803,0.49467 1.05179,0.52141 2.17277,0.77543 3.30759,0.77543 2.54643,0 5.10669,-1.2701 6.80893,-3.55629 30.7924,-41.472259 44.16114,-48.959192 68.06158,-38.169986 l 0.775,0.347607 0.66428,-0.508043 c 0.22143,-0.173803 0.62277,-0.508042 0.8442,-0.895758 0.74732,-1.283474 0.29063,-2.927925 -0.99643,-3.663249 z"
     id="path16"
     style="stroke-width:1.36024" />
  <path
     class="cls-1"
     d="m 351.2522,114.38206 c -1.17634,-1.89848 -3.73661,-2.51347 -5.70178,-1.37706 L 200.88841,196.72495 56.254079,117.16292 c -1.992856,-1.0963 -4.525445,-0.42783 -5.660266,1.49738 -1.134821,1.92521 -0.442857,4.37184 1.55,5.46814 l 144.648167,79.56203 v 159.6321 c 0,2.21934 1.85447,4.01085 4.15179,4.01085 2.29732,0 4.15178,-1.79151 4.15178,-4.01085 V 203.62362 l 144.7312,-83.76006 c 1.96518,-1.13641 2.60179,-3.5964 1.42545,-5.50824 z"
     id="path17"
     style="stroke-width:1.36024" />
</svg>
