<?xml version="1.0" encoding="UTF-8" standalone="no"?>
<!-- Created with Inkscape (http://www.inkscape.org/) -->

<svg
   version="1.1"
   id="svg2"
   width="737.01331"
   height="737.01331"
   viewBox="0 0 737.01331 737.01331"
   sodipodi:docname="REDI_ISOTIPO_SIN_BASELINE_CIRCULO_NARANJA.eps"
   xmlns:inkscape="http://www.inkscape.org/namespaces/inkscape"
   xmlns:sodipodi="http://sodipodi.sourceforge.net/DTD/sodipodi-0.dtd"
   xmlns="http://www.w3.org/2000/svg"
   xmlns:svg="http://www.w3.org/2000/svg">
  <defs
     id="defs6" />
  <sodipodi:namedview
     id="namedview4"
     pagecolor="#ffffff"
     bordercolor="#000000"
     borderopacity="0.25"
     inkscape:showpageshadow="2"
     inkscape:pageopacity="0.0"
     inkscape:pagecheckerboard="0"
     inkscape:deskcolor="#d1d1d1" />
  <g
     id="g8"
     inkscape:groupmode="layer"
     inkscape:label="ink_ext_XXXXXX"
     transform="matrix(1.3333333,0,0,-1.3333333,0,737.01333)">
    <g
       id="g10"
       transform="scale(0.1)">
      <path
         d="m 3664.42,3621.56 c 0,-367.11 -122.36,-553.11 -313.26,-651.01 234.95,-107.68 298.58,-288.8 298.58,-763.59 0,-199.44 -1.26,-393.72 -0.57,-553.26 l -777.2,-104.85 c -7.58,155.5 -10.3,403.36 -10.3,795.17 0,323.06 -29.36,347.52 -185.99,347.52 h -39.16 V 1517.09 l -773.38,-104.33 v 3163.28 h 964.27 c 636.34,0 837.01,-323.06 837.01,-837.01 z m 0,-2428.62 -1801.28,-241.432 v 70.912 l 1801.28,241.43 z M 2763.77,5513.39 C 1245.21,5513.39 14.1758,4282.34 14.1758,2763.78 14.1758,1245.21 1245.21,14.1797 2763.77,14.1797 c 1518.58,0 2749.61,1231.0303 2749.61,2749.6003 0,1518.56 -1231.03,2749.61 -2749.61,2749.61"
         style="fill:#c83627;fill-opacity:1;fill-rule:nonzero;stroke:none"
         id="path12" />
      <path
         d="m 2685.46,3998.45 h -44.05 v -729.32 h 58.74 c 127.26,0 181.11,44.06 181.11,249.64 v 259.42 c 0,181.12 -44.05,220.26 -195.8,220.26"
         style="fill:#c83627;fill-opacity:1;fill-rule:nonzero;stroke:none"
         id="path14" />
    </g>
  </g>
</svg>
