<svg width="41" height="38" viewBox="0 0 41 38" fill="none" xmlns="http://www.w3.org/2000/svg">
<path d="M14.1433 36.3345C13.8592 36.3345 13.575 36.261 13.3204 36.114L9.02769 33.6355C8.71551 33.4553 8.47682 33.1814 8.33885 32.8608C8.33127 32.8678 8.32115 32.8776 8.31472 32.8862C8.26329 32.9548 8.25103 32.9861 8.22901 33.0576C8.20409 33.1386 8.20484 33.2732 8.20484 33.2732C8.20484 33.8611 8.51851 34.4044 9.02769 34.6984L13.3204 37.1768C13.575 37.3238 13.8592 37.3973 14.1433 37.3973V36.3345Z" fill="url(#paint0_linear_2678_372)"/>
<path d="M14.1433 36.3345C14.427 36.3345 14.7108 36.261 14.9651 36.114L19.2528 33.6355C19.5646 33.4553 19.803 33.1813 19.9408 32.8608C19.9484 32.8678 19.9585 32.8776 19.9649 32.8862C20.0163 32.9548 20.0285 32.9861 20.0505 33.0576C20.0754 33.1386 20.0747 33.2732 20.0747 33.2732C20.0747 33.8611 19.7614 34.4044 19.2528 34.6984L14.9651 37.1768C14.7108 37.3238 14.427 37.3973 14.1432 37.3973L14.1433 36.3345Z" fill="url(#paint1_linear_2678_372)"/>
<path d="M14.1433 30.7997C13.8615 30.7985 13.58 30.725 13.3275 30.5792L9.03472 28.1008C8.77714 27.9521 8.5696 27.7396 8.42738 27.4897C8.28401 27.7366 8.20483 28.0208 8.20483 28.3162V32.2102C8.20483 32.7981 8.51851 33.3414 9.02769 33.6354L13.3204 36.1138C13.575 36.2608 13.8592 36.3343 14.1433 36.3343V30.7997Z" fill="url(#paint2_linear_2678_372)"/>
<path d="M14.1432 36.3355C14.4274 36.3355 14.7115 36.262 14.9661 36.115L19.2589 33.6366C19.768 33.3426 20.0817 32.7993 20.0817 32.2114V28.3174C20.0817 28.0268 20.0051 27.7472 19.8662 27.5032C19.7242 27.7477 19.5192 27.9557 19.2659 28.102L14.9731 30.5804C14.7164 30.7286 14.4297 30.8021 14.1432 30.8009V36.3355Z" fill="url(#paint3_linear_2678_372)"/>
<path d="M14.9661 24.4126C14.4569 24.1186 13.8296 24.1186 13.3204 24.4126L9.02767 26.8911C8.77307 27.038 8.56736 27.2474 8.42529 27.4934L8.42735 27.4899C8.56957 27.7397 8.77712 27.9522 9.03469 28.1009L13.3274 30.5793C13.5799 30.7251 13.8615 30.7986 14.1433 30.7998V30.801C14.4297 30.8022 14.7165 30.7287 14.9732 30.5805L19.2659 28.1021C19.5193 27.9558 19.7242 27.7478 19.8662 27.5033C20.0051 27.7473 20.0817 28.0269 20.0817 28.3175V28.3163C20.0817 27.7283 19.7681 27.185 19.2589 26.8911L14.9661 24.4126Z" fill="url(#paint4_linear_2678_372)"/>
<path d="M34.8572 24.643C34.573 24.643 34.2889 24.5695 34.0343 24.4226L29.7416 21.9441C29.4294 21.7639 29.1907 21.4899 29.0527 21.1694C29.0451 21.1764 29.035 21.1862 29.0286 21.1948C28.9772 21.2633 28.9649 21.2947 28.9429 21.3662C28.918 21.4472 28.9187 21.5818 28.9187 21.5818C28.9187 22.1697 29.2324 22.713 29.7416 23.007L34.0343 25.4854C34.2889 25.6324 34.573 25.7059 34.8572 25.7059V24.643Z" fill="url(#paint5_linear_2678_372)"/>
<path d="M34.8571 24.643C35.1409 24.643 35.4247 24.5695 35.679 24.4226L39.9667 21.9441C40.2785 21.7639 40.5169 21.4899 40.6547 21.1694C40.6623 21.1764 40.6724 21.1862 40.6788 21.1948C40.7302 21.2633 40.7424 21.2947 40.7644 21.3662C40.7893 21.4472 40.7885 21.5818 40.7885 21.5818C40.7885 22.1697 40.4752 22.713 39.9667 23.007L35.679 25.4854C35.4247 25.6324 35.1409 25.7059 34.8571 25.7059V24.643Z" fill="url(#paint6_linear_2678_372)"/>
<path d="M34.8572 19.1083C34.5754 19.1071 34.2938 19.0336 34.0413 18.8878L29.7486 16.4094C29.491 16.2607 29.2835 16.0482 29.1412 15.7983C28.9979 16.0452 28.9187 16.3294 28.9187 16.6248V20.5187C28.9187 21.1067 29.2324 21.65 29.7416 21.944L34.0343 24.4224C34.2889 24.5694 34.573 24.6429 34.8572 24.6429V19.1083Z" fill="url(#paint7_linear_2678_372)"/>
<path d="M34.8571 24.6441C35.1412 24.6441 35.4254 24.5706 35.68 24.4236L39.9727 21.9452C40.4819 21.6512 40.7956 21.1079 40.7956 20.5199V16.626C40.7956 16.3354 40.719 16.0558 40.5801 15.8118C40.4381 16.0563 40.2331 16.2643 39.9797 16.4106L35.687 18.889C35.4303 19.0372 35.1436 19.1107 34.8571 19.1095V24.6441Z" fill="url(#paint8_linear_2678_372)"/>
<path d="M35.68 12.7212C35.1708 12.4272 34.5435 12.4272 34.0343 12.7212L29.7415 15.1996C29.4869 15.3466 29.2812 15.5559 29.1392 15.802L29.1412 15.7984C29.2834 16.0483 29.491 16.2608 29.7486 16.4095L34.0413 18.8879C34.2938 19.0337 34.5753 19.1072 34.8571 19.1084V19.1096C35.1436 19.1108 35.4303 19.0373 35.687 18.8891L39.9798 16.4107C40.2331 16.2644 40.4381 16.0564 40.5801 15.8119C40.719 16.0559 40.7956 16.3355 40.7956 16.6261V16.6249C40.7956 16.0369 40.4819 15.4936 39.9727 15.1996L35.68 12.7212Z" fill="url(#paint9_linear_2678_372)"/>
<path d="M21.0003 13.563C21.2844 13.563 21.5685 13.6365 21.8231 13.7835L26.1159 16.2619C26.428 16.4422 26.6667 16.7161 26.8047 17.0366C26.8123 17.0297 26.8224 17.0198 26.8288 17.0113C26.8803 16.9427 26.8925 16.9114 26.9145 16.8399C26.9395 16.7589 26.9387 16.6243 26.9387 16.6243C26.9387 16.0363 26.625 15.493 26.1159 15.1991L21.8231 12.7206C21.5685 12.5737 21.2844 12.5002 21.0003 12.5002V13.563Z" fill="url(#paint10_linear_2678_372)"/>
<path d="M21.0003 13.563C20.7165 13.563 20.4327 13.6365 20.1784 13.7835L15.8908 16.2619C15.579 16.4422 15.3405 16.7161 15.2027 17.0366C15.1952 17.0297 15.1851 17.0198 15.1786 17.0113C15.1273 16.9427 15.115 16.9114 15.093 16.8399C15.0681 16.7589 15.0689 16.6243 15.0689 16.6243C15.0689 16.0363 15.3822 15.493 15.8908 15.1991L20.1784 12.7206C20.4327 12.5737 20.7165 12.5002 21.0003 12.5002V13.563Z" fill="url(#paint11_linear_2678_372)"/>
<path d="M21.0003 19.0978C21.282 19.099 21.5636 19.1725 21.8161 19.3183L26.1088 21.7967C26.3664 21.9454 26.574 22.1579 26.7162 22.4077C26.8595 22.1608 26.9387 21.8767 26.9387 21.5813V17.6873C26.9387 17.0994 26.625 16.5561 26.1159 16.2621L21.8231 13.7837C21.5685 13.6367 21.2844 13.5632 21.0003 13.5632V19.0978Z" fill="url(#paint12_linear_2678_372)"/>
<path d="M21.0003 13.562C20.7162 13.562 20.432 13.6355 20.1774 13.7825L15.8847 16.2609C15.3755 16.5549 15.0618 17.0982 15.0618 17.6861V21.5801C15.0618 21.8706 15.1384 22.1503 15.2774 22.3943C15.4194 22.1498 15.6243 21.9418 15.8777 21.7955L20.1704 19.3171C20.4271 19.1689 20.7138 19.0954 21.0003 19.0966V13.562Z" fill="url(#paint13_linear_2678_372)"/>
<path d="M20.1774 25.4848C20.6866 25.7788 21.314 25.7788 21.8231 25.4848L26.1159 23.0064C26.3705 22.8594 26.5762 22.6501 26.7183 22.404L26.7162 22.4076C26.574 22.1578 26.3664 21.9453 26.1089 21.7966L21.8161 19.3182C21.5636 19.1724 21.2821 19.0989 21.0003 19.0977V19.0965C20.7138 19.0953 20.4271 19.1688 20.1704 19.317L15.8777 21.7954C15.6243 21.9417 15.4193 22.1497 15.2773 22.3942C15.1384 22.1502 15.0618 21.8705 15.0618 21.58V21.5812C15.0618 22.1691 15.3755 22.7124 15.8847 23.0064L20.1774 25.4848Z" fill="url(#paint14_linear_2678_372)"/>
<path d="M6.85716 24.643C6.57303 24.643 6.2889 24.5695 6.0343 24.4226L1.74156 21.9441C1.42937 21.7639 1.19068 21.4899 1.05272 21.1694C1.04513 21.1764 1.03501 21.1862 1.02859 21.1948C0.977161 21.2633 0.964901 21.2947 0.942878 21.3662C0.917953 21.4472 0.918704 21.5818 0.918704 21.5818C0.918704 22.1697 1.23237 22.713 1.74156 23.007L6.03431 25.4854C6.2889 25.6324 6.57303 25.7059 6.85716 25.7059V24.643Z" fill="url(#paint15_linear_2678_372)"/>
<path d="M6.85712 24.643C7.14091 24.643 7.42471 24.5695 7.679 24.4226L11.9667 21.9441C12.2785 21.7639 12.5169 21.4899 12.6547 21.1694C12.6623 21.1764 12.6724 21.1862 12.6788 21.1948C12.7302 21.2633 12.7424 21.2947 12.7644 21.3662C12.7893 21.4472 12.7885 21.5818 12.7885 21.5818C12.7885 22.1697 12.4752 22.713 11.9667 23.007L7.679 25.4854C7.42471 25.6324 7.14091 25.7059 6.85712 25.7059V24.643Z" fill="url(#paint16_linear_2678_372)"/>
<path d="M6.85716 19.1083C6.57537 19.1071 6.29382 19.0336 6.04133 18.8878L1.74858 16.4094C1.49101 16.2607 1.28347 16.0482 1.14125 15.7983C0.997878 16.0452 0.918701 16.3294 0.918701 16.6248V20.5187C0.918701 21.1067 1.23237 21.65 1.74156 21.944L6.0343 24.4224C6.2889 24.5694 6.57303 24.6429 6.85716 24.6429V19.1083Z" fill="url(#paint17_linear_2678_372)"/>
<path d="M6.85712 24.6441C7.14125 24.6441 7.42538 24.5706 7.67997 24.4236L11.9727 21.9452C12.4819 21.6512 12.7956 21.1079 12.7956 20.5199V16.626C12.7956 16.3354 12.719 16.0558 12.5801 15.8118C12.4381 16.0563 12.2331 16.2643 11.9797 16.4106L7.687 18.889C7.43031 19.0372 7.14359 19.1107 6.85712 19.1095V24.6441Z" fill="url(#paint18_linear_2678_372)"/>
<path d="M7.67999 12.7212C7.17081 12.4272 6.54346 12.4272 6.03428 12.7212L1.74153 15.1996C1.48694 15.3466 1.28123 15.5559 1.13916 15.802L1.14122 15.7984C1.28344 16.0483 1.49098 16.2608 1.74856 16.4095L6.0413 18.8879C6.2938 19.0337 6.57535 19.1072 6.85714 19.1084V19.1096C7.14361 19.1108 7.43033 19.0373 7.68702 18.8891L11.9798 16.4107C12.2331 16.2644 12.4381 16.0564 12.5801 15.8119C12.719 16.0559 12.7956 16.3355 12.7956 16.6261V16.6249C12.7956 16.0369 12.4819 15.4936 11.9727 15.1996L7.67999 12.7212Z" fill="url(#paint19_linear_2678_372)"/>
<path d="M13.8572 12.3969C13.573 12.3969 13.2889 12.3235 13.0343 12.1765L8.74156 9.69804C8.42937 9.5178 8.19068 9.24385 8.05272 8.92334C8.04513 8.93028 8.03501 8.94012 8.02859 8.94868C7.97716 9.01725 7.9649 9.04857 7.94288 9.12011C7.91795 9.20107 7.9187 9.33567 7.9187 9.33567C7.9187 9.92363 8.23237 10.4669 8.74156 10.7609L13.0343 13.2393C13.2889 13.3863 13.573 13.4598 13.8572 13.4598V12.3969Z" fill="url(#paint20_linear_2678_372)"/>
<path d="M13.8571 12.3969C14.1409 12.3969 14.4247 12.3234 14.679 12.1765L18.9667 9.69805C19.2785 9.51781 19.5169 9.24385 19.6547 8.92334C19.6623 8.93028 19.6724 8.94012 19.6788 8.94868C19.7302 9.01725 19.7424 9.04857 19.7644 9.12011C19.7893 9.20107 19.7885 9.33567 19.7885 9.33567C19.7885 9.92363 19.4752 10.4669 18.9667 10.7609L14.679 13.2393C14.4247 13.3863 14.1409 13.4598 13.8571 13.4598V12.3969Z" fill="url(#paint21_linear_2678_372)"/>
<path d="M13.8572 6.86216C13.5754 6.86096 13.2938 6.78747 13.0413 6.6417L8.74858 4.16328C8.49101 4.01457 8.28347 3.80206 8.14125 3.55225C7.99788 3.79914 7.9187 4.08327 7.9187 4.37866V8.27264C7.9187 8.8606 8.23237 9.40389 8.74156 9.69787L13.0343 12.1763C13.2889 12.3233 13.573 12.3968 13.8572 12.3968V6.86216Z" fill="url(#paint22_linear_2678_372)"/>
<path d="M13.8571 12.398C14.1412 12.398 14.4254 12.3245 14.68 12.1775L18.9727 9.69908C19.4819 9.4051 19.7956 8.86181 19.7956 8.27385V4.37987C19.7956 4.08934 19.719 3.80971 19.5801 3.56567C19.4381 3.8102 19.2331 4.01821 18.9797 4.16449L14.687 6.64291C14.4303 6.79111 14.1436 6.8646 13.8571 6.86337V12.398Z" fill="url(#paint23_linear_2678_372)"/>
<path d="M14.68 0.475123C14.1708 0.181144 13.5435 0.181144 13.0343 0.475123L8.74153 2.95354C8.48694 3.10053 8.28123 3.30985 8.13916 3.55591L8.14122 3.55235C8.28344 3.80217 8.49098 4.01468 8.74856 4.16339L13.0413 6.6418C13.2938 6.78758 13.5753 6.86107 13.8571 6.86227V6.86346C14.1436 6.86468 14.4303 6.79119 14.687 6.64299L18.9798 4.16457C19.2331 4.01829 19.4381 3.81029 19.5801 3.56576C19.719 3.80979 19.7956 4.08942 19.7956 4.37996V4.37877C19.7956 3.79081 19.4819 3.24752 18.9727 2.95354L14.68 0.475123Z" fill="url(#paint24_linear_2678_372)"/>
<path d="M28.8572 36.3969C28.573 36.3969 28.2889 36.3235 28.0343 36.1765L23.7416 33.698C23.4294 33.5178 23.1907 33.2438 23.0527 32.9233C23.0451 32.9303 23.035 32.9401 23.0286 32.9487C22.9772 33.0173 22.9649 33.0486 22.9429 33.1201C22.918 33.2011 22.9187 33.3357 22.9187 33.3357C22.9187 33.9236 23.2324 34.4669 23.7416 34.7609L28.0343 37.2393C28.2889 37.3863 28.573 37.4598 28.8572 37.4598V36.3969Z" fill="url(#paint25_linear_2678_372)"/>
<path d="M28.8571 36.3969C29.1409 36.3969 29.4247 36.3234 29.679 36.1765L33.9667 33.698C34.2785 33.5178 34.5169 33.2438 34.6547 32.9233C34.6623 32.9303 34.6724 32.9401 34.6788 32.9487C34.7302 33.0173 34.7424 33.0486 34.7644 33.1201C34.7893 33.2011 34.7885 33.3357 34.7885 33.3357C34.7885 33.9236 34.4752 34.4669 33.9667 34.7609L29.679 37.2393C29.4247 37.3863 29.1409 37.4598 28.8571 37.4598V36.3969Z" fill="url(#paint26_linear_2678_372)"/>
<path d="M28.8572 30.8622C28.5754 30.861 28.2938 30.7875 28.0413 30.6417L23.7486 28.1633C23.491 28.0146 23.2835 27.8021 23.1412 27.5522C22.9979 27.7991 22.9187 28.0833 22.9187 28.3787V32.2726C22.9187 32.8606 23.2324 33.4039 23.7416 33.6979L28.0343 36.1763C28.2889 36.3233 28.573 36.3968 28.8572 36.3968V30.8622Z" fill="url(#paint27_linear_2678_372)"/>
<path d="M28.8571 36.398C29.1412 36.398 29.4254 36.3245 29.68 36.1775L33.9727 33.6991C34.4819 33.4051 34.7956 32.8618 34.7956 32.2739V28.3799C34.7956 28.0893 34.719 27.8097 34.5801 27.5657C34.4381 27.8102 34.2331 28.0182 33.9797 28.1645L29.687 30.6429C29.4303 30.7911 29.1436 30.8646 28.8571 30.8634V36.398Z" fill="url(#paint28_linear_2678_372)"/>
<path d="M29.68 24.4751C29.1708 24.1811 28.5435 24.1811 28.0343 24.4751L23.7415 26.9535C23.4869 27.1005 23.2812 27.3098 23.1392 27.5559L23.1412 27.5524C23.2834 27.8022 23.491 28.0147 23.7486 28.1634L28.0413 30.6418C28.2938 30.7876 28.5753 30.8611 28.8571 30.8623V30.8635C29.1436 30.8647 29.4303 30.7912 29.687 30.643L33.9798 28.1646C34.2331 28.0183 34.4381 27.8103 34.5801 27.5658C34.719 27.8098 34.7956 28.0894 34.7956 28.38V28.3788C34.7956 27.7908 34.4819 27.2475 33.9727 26.9535L29.68 24.4751Z" fill="url(#paint29_linear_2678_372)"/>
<path d="M28.8572 12.3969C28.573 12.3969 28.2889 12.3235 28.0343 12.1765L23.7416 9.69804C23.4294 9.5178 23.1907 9.24385 23.0527 8.92334C23.0451 8.93028 23.035 8.94012 23.0286 8.94868C22.9772 9.01725 22.9649 9.04857 22.9429 9.12011C22.918 9.20107 22.9187 9.33567 22.9187 9.33567C22.9187 9.92363 23.2324 10.4669 23.7416 10.7609L28.0343 13.2393C28.2889 13.3863 28.573 13.4598 28.8572 13.4598V12.3969Z" fill="url(#paint30_linear_2678_372)"/>
<path d="M28.8571 12.3969C29.1409 12.3969 29.4247 12.3234 29.679 12.1765L33.9667 9.69805C34.2785 9.51781 34.5169 9.24385 34.6547 8.92334C34.6623 8.93028 34.6724 8.94012 34.6788 8.94868C34.7302 9.01725 34.7424 9.04857 34.7644 9.12011C34.7893 9.20107 34.7885 9.33567 34.7885 9.33567C34.7885 9.92363 34.4752 10.4669 33.9667 10.7609L29.679 13.2393C29.4247 13.3863 29.1409 13.4598 28.8571 13.4598V12.3969Z" fill="url(#paint31_linear_2678_372)"/>
<path d="M28.8572 6.86216C28.5754 6.86096 28.2938 6.78747 28.0413 6.6417L23.7486 4.16328C23.491 4.01457 23.2835 3.80206 23.1412 3.55225C22.9979 3.79914 22.9187 4.08327 22.9187 4.37866V8.27264C22.9187 8.8606 23.2324 9.40389 23.7416 9.69787L28.0343 12.1763C28.2889 12.3233 28.573 12.3968 28.8572 12.3968V6.86216Z" fill="url(#paint32_linear_2678_372)"/>
<path d="M28.8571 12.398C29.1412 12.398 29.4254 12.3245 29.68 12.1775L33.9727 9.69908C34.4819 9.4051 34.7956 8.86181 34.7956 8.27385V4.37987C34.7956 4.08934 34.719 3.80971 34.5801 3.56567C34.4381 3.8102 34.2331 4.01821 33.9797 4.16449L29.687 6.64291C29.4303 6.79111 29.1436 6.8646 28.8571 6.86337V12.398Z" fill="url(#paint33_linear_2678_372)"/>
<path d="M29.68 0.475123C29.1708 0.181144 28.5435 0.181144 28.0343 0.475123L23.7415 2.95354C23.4869 3.10053 23.2812 3.30985 23.1392 3.55591L23.1412 3.55235C23.2834 3.80217 23.491 4.01468 23.7486 4.16339L28.0413 6.6418C28.2938 6.78758 28.5753 6.86107 28.8571 6.86227V6.86346C29.1436 6.86468 29.4303 6.79119 29.687 6.64299L33.9798 4.16457C34.2331 4.01829 34.4381 3.81029 34.5801 3.56576C34.719 3.80979 34.7956 4.08942 34.7956 4.37996V4.37877C34.7956 3.79081 34.4819 3.24752 33.9727 2.95354L29.68 0.475123Z" fill="url(#paint34_linear_2678_372)"/>
<defs>
<linearGradient id="paint0_linear_2678_372" x1="13.4747" y1="37.2919" x2="14.1433" y2="36.3491" gradientUnits="userSpaceOnUse">
<stop stop-color="#CFCFCF"/>
<stop offset="1" stop-color="#EBEBEB"/>
</linearGradient>
<linearGradient id="paint1_linear_2678_372" x1="14.8118" y1="37.2405" x2="14.1422" y2="36.3327" gradientUnits="userSpaceOnUse">
<stop stop-color="#CFCFCF"/>
<stop offset="1" stop-color="#EBEBEB"/>
</linearGradient>
<linearGradient id="paint2_linear_2678_372" x1="14.1433" y1="30.846" x2="11.1604" y2="34.7889" gradientUnits="userSpaceOnUse">
<stop stop-color="#FF8589"/>
<stop offset="1" stop-color="#FF595E"/>
</linearGradient>
<linearGradient id="paint3_linear_2678_372" x1="14.1432" y1="30.8472" x2="17.1261" y2="34.7375" gradientUnits="userSpaceOnUse">
<stop stop-color="#FF8589"/>
<stop offset="1" stop-color="#FF595E"/>
</linearGradient>
<linearGradient id="paint4_linear_2678_372" x1="14.2535" y1="24.1921" x2="14.2461" y2="30.7947" gradientUnits="userSpaceOnUse">
<stop stop-color="#FF595E"/>
<stop offset="1" stop-color="#FF8589"/>
</linearGradient>
<linearGradient id="paint5_linear_2678_372" x1="34.1886" y1="25.6005" x2="34.8572" y2="24.6576" gradientUnits="userSpaceOnUse">
<stop stop-color="#CFCFCF"/>
<stop offset="1" stop-color="#EBEBEB"/>
</linearGradient>
<linearGradient id="paint6_linear_2678_372" x1="35.5257" y1="25.5491" x2="34.8561" y2="24.6413" gradientUnits="userSpaceOnUse">
<stop stop-color="#CFCFCF"/>
<stop offset="1" stop-color="#EBEBEB"/>
</linearGradient>
<linearGradient id="paint7_linear_2678_372" x1="34.8572" y1="19.1546" x2="31.8743" y2="23.0975" gradientUnits="userSpaceOnUse">
<stop stop-color="white"/>
<stop offset="1" stop-color="white"/>
</linearGradient>
<linearGradient id="paint8_linear_2678_372" x1="34.8571" y1="19.1558" x2="37.84" y2="23.0461" gradientUnits="userSpaceOnUse">
<stop stop-color="white"/>
<stop offset="1" stop-color="#F1F1F1"/>
</linearGradient>
<linearGradient id="paint9_linear_2678_372" x1="34.9674" y1="12.5007" x2="34.96" y2="19.1033" gradientUnits="userSpaceOnUse">
<stop stop-color="white"/>
<stop offset="1" stop-color="white"/>
</linearGradient>
<linearGradient id="paint10_linear_2678_372" x1="21.6688" y1="12.6056" x2="21.0003" y2="13.5484" gradientUnits="userSpaceOnUse">
<stop stop-color="#CFCFCF"/>
<stop offset="1" stop-color="#EBEBEB"/>
</linearGradient>
<linearGradient id="paint11_linear_2678_372" x1="20.3317" y1="12.657" x2="21.0014" y2="13.5648" gradientUnits="userSpaceOnUse">
<stop stop-color="#CFCFCF"/>
<stop offset="1" stop-color="#EBEBEB"/>
</linearGradient>
<linearGradient id="paint12_linear_2678_372" x1="21.0003" y1="19.0515" x2="23.9831" y2="15.1086" gradientUnits="userSpaceOnUse">
<stop stop-color="#939393"/>
<stop offset="1" stop-color="#5D5D5D"/>
</linearGradient>
<linearGradient id="paint13_linear_2678_372" x1="21.0003" y1="19.0502" x2="18.0174" y2="15.16" gradientUnits="userSpaceOnUse">
<stop stop-color="#939393"/>
<stop offset="1" stop-color="#5D5D5D"/>
</linearGradient>
<linearGradient id="paint14_linear_2678_372" x1="20.89" y1="25.7053" x2="20.8974" y2="19.1028" gradientUnits="userSpaceOnUse">
<stop stop-color="#5D5D5D"/>
<stop offset="1" stop-color="#939393"/>
</linearGradient>
<linearGradient id="paint15_linear_2678_372" x1="6.18859" y1="25.6005" x2="6.85716" y2="24.6576" gradientUnits="userSpaceOnUse">
<stop stop-color="#CFCFCF"/>
<stop offset="1" stop-color="#EBEBEB"/>
</linearGradient>
<linearGradient id="paint16_linear_2678_372" x1="7.52569" y1="25.5491" x2="6.85607" y2="24.6413" gradientUnits="userSpaceOnUse">
<stop stop-color="#CFCFCF"/>
<stop offset="1" stop-color="#EBEBEB"/>
</linearGradient>
<linearGradient id="paint17_linear_2678_372" x1="6.85716" y1="19.1546" x2="3.8743" y2="23.0975" gradientUnits="userSpaceOnUse">
<stop stop-color="white"/>
<stop offset="1" stop-color="white"/>
</linearGradient>
<linearGradient id="paint18_linear_2678_372" x1="6.85712" y1="19.1558" x2="9.83997" y2="23.0461" gradientUnits="userSpaceOnUse">
<stop stop-color="white"/>
<stop offset="1" stop-color="#F1F1F1"/>
</linearGradient>
<linearGradient id="paint19_linear_2678_372" x1="6.96738" y1="12.5007" x2="6.96" y2="19.1033" gradientUnits="userSpaceOnUse">
<stop stop-color="white"/>
<stop offset="1" stop-color="white"/>
</linearGradient>
<linearGradient id="paint20_linear_2678_372" x1="13.1886" y1="13.3544" x2="13.8572" y2="12.4115" gradientUnits="userSpaceOnUse">
<stop stop-color="#CFCFCF"/>
<stop offset="1" stop-color="#EBEBEB"/>
</linearGradient>
<linearGradient id="paint21_linear_2678_372" x1="14.5257" y1="13.303" x2="13.8561" y2="12.3952" gradientUnits="userSpaceOnUse">
<stop stop-color="#CFCFCF"/>
<stop offset="1" stop-color="#EBEBEB"/>
</linearGradient>
<linearGradient id="paint22_linear_2678_372" x1="13.8572" y1="6.90851" x2="10.8743" y2="10.8514" gradientUnits="userSpaceOnUse">
<stop stop-color="white"/>
<stop offset="1" stop-color="white"/>
</linearGradient>
<linearGradient id="paint23_linear_2678_372" x1="13.8571" y1="6.90972" x2="16.84" y2="10.8" gradientUnits="userSpaceOnUse">
<stop stop-color="white"/>
<stop offset="1" stop-color="#F1F1F1"/>
</linearGradient>
<linearGradient id="paint24_linear_2678_372" x1="13.9674" y1="0.254639" x2="13.96" y2="6.85719" gradientUnits="userSpaceOnUse">
<stop stop-color="white"/>
<stop offset="1" stop-color="white"/>
</linearGradient>
<linearGradient id="paint25_linear_2678_372" x1="28.1886" y1="37.3544" x2="28.8572" y2="36.4115" gradientUnits="userSpaceOnUse">
<stop stop-color="#CFCFCF"/>
<stop offset="1" stop-color="#EBEBEB"/>
</linearGradient>
<linearGradient id="paint26_linear_2678_372" x1="29.5257" y1="37.303" x2="28.8561" y2="36.3952" gradientUnits="userSpaceOnUse">
<stop stop-color="#CFCFCF"/>
<stop offset="1" stop-color="#EBEBEB"/>
</linearGradient>
<linearGradient id="paint27_linear_2678_372" x1="28.8572" y1="30.9085" x2="25.8743" y2="34.8514" gradientUnits="userSpaceOnUse">
<stop stop-color="white"/>
<stop offset="1" stop-color="white"/>
</linearGradient>
<linearGradient id="paint28_linear_2678_372" x1="28.8571" y1="30.9097" x2="31.84" y2="34.8" gradientUnits="userSpaceOnUse">
<stop stop-color="white"/>
<stop offset="1" stop-color="#F1F1F1"/>
</linearGradient>
<linearGradient id="paint29_linear_2678_372" x1="28.9674" y1="24.2546" x2="28.96" y2="30.8572" gradientUnits="userSpaceOnUse">
<stop stop-color="white"/>
<stop offset="1" stop-color="white"/>
</linearGradient>
<linearGradient id="paint30_linear_2678_372" x1="28.1886" y1="13.3544" x2="28.8572" y2="12.4115" gradientUnits="userSpaceOnUse">
<stop stop-color="#CFCFCF"/>
<stop offset="1" stop-color="#EBEBEB"/>
</linearGradient>
<linearGradient id="paint31_linear_2678_372" x1="29.5257" y1="13.303" x2="28.8561" y2="12.3952" gradientUnits="userSpaceOnUse">
<stop stop-color="#CFCFCF"/>
<stop offset="1" stop-color="#EBEBEB"/>
</linearGradient>
<linearGradient id="paint32_linear_2678_372" x1="28.8572" y1="6.90851" x2="25.8743" y2="10.8514" gradientUnits="userSpaceOnUse">
<stop stop-color="#A1DB43"/>
<stop offset="1" stop-color="#8AC926"/>
</linearGradient>
<linearGradient id="paint33_linear_2678_372" x1="28.8571" y1="6.90972" x2="31.84" y2="10.8" gradientUnits="userSpaceOnUse">
<stop stop-color="#A1DB43"/>
<stop offset="1" stop-color="#8AC926"/>
</linearGradient>
<linearGradient id="paint34_linear_2678_372" x1="28.9674" y1="0.254639" x2="28.96" y2="6.85719" gradientUnits="userSpaceOnUse">
<stop stop-color="#8AC926"/>
<stop offset="1" stop-color="#A1DB43"/>
</linearGradient>
</defs>
</svg>
